<svg xmlns="http://www.w3.org/2000/svg" width="900" height="450" viewBox="0 0 900 450">
<defs>
<style>
.rg{font-family:'Courier New',Courier,monospace;font-size:13px;}
.rt{fill:#2e6299;}
@keyframes fall{from{transform:translateY(-200px)}to{transform:translateY(450px)}}
@keyframes ga{
  0%,56%,100%{fill:#cce8ff;filter:none}
  58%{fill:#ff2020;filter:drop-shadow(5px 0 0 rgba(255,40,40,.5))}
  60%{fill:#ff2020;filter:drop-shadow(-4px 0 0 rgba(255,40,40,.45))}
  62%{fill:#ff2020;filter:drop-shadow(3px 0 0 rgba(255,40,40,.4))}
  64%{fill:#ff2020;filter:none}
  67%{fill:#ff6655}
  70%{fill:#cce8ff}
}
@keyframes gb{
  0%,36%,100%{fill:#cce8ff;filter:none}
  38%{fill:#ff2020;filter:drop-shadow(-6px 0 0 rgba(255,40,40,.45))}
  40%{fill:#ff2020;filter:drop-shadow(4px 0 0 rgba(255,40,40,.5))}
  42%{fill:#ff2020;filter:drop-shadow(-2px 0 0 rgba(255,40,40,.35))}
  44%{fill:#ff2020;filter:none}
  47%{fill:#ff6655}
  50%{fill:#cce8ff}
}
@keyframes gc{
  0%,71%,100%{fill:#cce8ff;filter:none}
  73%{fill:#ff2020;filter:drop-shadow(5px 0 0 rgba(255,40,40,.4))}
  75%{fill:#ff2020;filter:drop-shadow(-3px 0 0 rgba(255,40,40,.5))}
  77%{fill:#ff2020;filter:drop-shadow(4px 0 0 rgba(255,40,40,.4))}
  79%{fill:#ff2020;filter:none}
  82%{fill:#ff5544}
  85%{fill:#cce8ff}
}
</style>
<clipPath id="sky"><rect x="0" y="0" width="900" height="220"/></clipPath>
<radialGradient id="atmo" cx="50%" cy="100%" r="60%" gradientUnits="objectBoundingBox">
  <stop offset="0%" stop-color="#182848" stop-opacity="1"/>
  <stop offset="100%" stop-color="#030810" stop-opacity="0"/>
</radialGradient>
<radialGradient id="sg" cx="50%" cy="100%" r="55%" gradientUnits="objectBoundingBox">
  <stop offset="0%" stop-color="#2255cc" stop-opacity=".45"/>
  <stop offset="65%" stop-color="#1133aa" stop-opacity=".15"/>
  <stop offset="100%" stop-color="#061122" stop-opacity="0"/>
</radialGradient>
<linearGradient id="sf" x1="0" y1="0" x2="0" y2="1">
  <stop offset="0%" stop-color="#99bbff"/>
  <stop offset="50%" stop-color="#5577ee"/>
  <stop offset="100%" stop-color="#2244cc"/>
</linearGradient>
</defs>

<!-- Full background -->
<rect width="900" height="450" fill="#020709"/>
<!-- Sky atmosphere -->
<rect width="900" height="220" fill="url(#atmo)"/>
<!-- Sun glow at horizon -->
<ellipse cx="450" cy="220" rx="220" ry="95" fill="url(#sg)"/>
<!-- Ground covers below horizon -->
<rect x="0" y="220" width="900" height="230" fill="#020709"/>

<!-- Sun body clipped to sky -->
<circle cx="450" cy="226" r="72" fill="url(#sf)" clip-path="url(#sky)"/>
<circle cx="450" cy="226" r="54" fill="#ccdcff" opacity=".15" clip-path="url(#sky)"/>

<!-- Binary rain clipped to sky -->
<g clip-path="url(#sky)" class="rg">

<!-- Col 1 x=20 dur=2.4s del=-0.5s -->
<g style="animation:fall 2.4s -0.5s linear infinite">
<text x="20" y="0"   class="rt" opacity=".03">1</text>
<text x="20" y="14"  class="rt" opacity=".06">0</text>
<text x="20" y="28"  class="rt" opacity=".10">1</text>
<text x="20" y="42"  class="rt" opacity=".17">1</text>
<text x="20" y="56"  class="rt" opacity=".26">0</text>
<text x="20" y="70"  class="rt" opacity=".38">1</text>
<text x="20" y="84"  class="rt" opacity=".53">0</text>
<text x="20" y="98"  class="rt" opacity=".70">1</text>
<text x="20" y="112" fill="#cce8ff">0</text>
</g>

<!-- Col 2 x=60 dur=2.8s del=-1.8s -->
<g style="animation:fall 2.8s -1.8s linear infinite">
<text x="60" y="0"   class="rt" opacity=".03">0</text>
<text x="60" y="14"  class="rt" opacity=".06">1</text>
<text x="60" y="28"  class="rt" opacity=".10">0</text>
<text x="60" y="42"  class="rt" opacity=".17">0</text>
<text x="60" y="56"  class="rt" opacity=".26">1</text>
<text x="60" y="70"  class="rt" opacity=".38">0</text>
<text x="60" y="84"  class="rt" opacity=".53">1</text>
<text x="60" y="98"  class="rt" opacity=".70">0</text>
<text x="60" y="112" fill="#cce8ff">1</text>
</g>

<!-- Col 3 x=100 dur=3.2s del=-0.3s -->
<g style="animation:fall 3.2s -0.3s linear infinite">
<text x="100" y="0"   class="rt" opacity=".03">1</text>
<text x="100" y="14"  class="rt" opacity=".06">1</text>
<text x="100" y="28"  class="rt" opacity=".10">0</text>
<text x="100" y="42"  class="rt" opacity=".17">1</text>
<text x="100" y="56"  class="rt" opacity=".26">0</text>
<text x="100" y="70"  class="rt" opacity=".38">0</text>
<text x="100" y="84"  class="rt" opacity=".53">1</text>
<text x="100" y="98"  class="rt" opacity=".70">1</text>
<text x="100" y="112" fill="#cce8ff">0</text>
</g>

<!-- Col 4 x=140 dur=3.6s del=-2.1s GLITCH_A -->
<g style="animation:fall 3.6s -2.1s linear infinite">
<text x="140" y="0"   class="rt" opacity=".03">1</text>
<text x="140" y="14"  class="rt" opacity=".06">0</text>
<text x="140" y="28"  class="rt" opacity=".10">0</text>
<text x="140" y="42"  class="rt" opacity=".17">1</text>
<text x="140" y="56"  class="rt" opacity=".26">1</text>
<text x="140" y="70"  class="rt" opacity=".38">0</text>
<text x="140" y="84"  class="rt" opacity=".53">1</text>
<text x="140" y="98"  class="rt" opacity=".70">0</text>
<text x="140" y="112" style="fill:#cce8ff;animation:ga 5.5s -1.2s infinite">1</text>
</g>

<!-- Col 5 x=180 dur=4.0s del=-1.4s -->
<g style="animation:fall 4.0s -1.4s linear infinite">
<text x="180" y="0"   class="rt" opacity=".03">0</text>
<text x="180" y="14"  class="rt" opacity=".06">1</text>
<text x="180" y="28"  class="rt" opacity=".10">1</text>
<text x="180" y="42"  class="rt" opacity=".17">0</text>
<text x="180" y="56"  class="rt" opacity=".26">1</text>
<text x="180" y="70"  class="rt" opacity=".38">0</text>
<text x="180" y="84"  class="rt" opacity=".53">0</text>
<text x="180" y="98"  class="rt" opacity=".70">1</text>
<text x="180" y="112" fill="#cce8ff">0</text>
</g>

<!-- Col 6 x=220 dur=4.4s del=-0.7s -->
<g style="animation:fall 4.4s -0.7s linear infinite">
<text x="220" y="0"   class="rt" opacity=".03">1</text>
<text x="220" y="14"  class="rt" opacity=".06">0</text>
<text x="220" y="28"  class="rt" opacity=".10">1</text>
<text x="220" y="42"  class="rt" opacity=".17">0</text>
<text x="220" y="56"  class="rt" opacity=".26">1</text>
<text x="220" y="70"  class="rt" opacity=".38">1</text>
<text x="220" y="84"  class="rt" opacity=".53">0</text>
<text x="220" y="98"  class="rt" opacity=".70">0</text>
<text x="220" y="112" fill="#cce8ff">1</text>
</g>

<!-- Col 7 x=260 dur=2.4s del=-1.9s -->
<g style="animation:fall 2.4s -1.9s linear infinite">
<text x="260" y="0"   class="rt" opacity=".03">0</text>
<text x="260" y="14"  class="rt" opacity=".06">1</text>
<text x="260" y="28"  class="rt" opacity=".10">0</text>
<text x="260" y="42"  class="rt" opacity=".17">1</text>
<text x="260" y="56"  class="rt" opacity=".26">1</text>
<text x="260" y="70"  class="rt" opacity=".38">0</text>
<text x="260" y="84"  class="rt" opacity=".53">1</text>
<text x="260" y="98"  class="rt" opacity=".70">0</text>
<text x="260" y="112" fill="#cce8ff">0</text>
</g>

<!-- Col 8 x=300 dur=2.8s del=-0.4s -->
<g style="animation:fall 2.8s -0.4s linear infinite">
<text x="300" y="0"   class="rt" opacity=".03">1</text>
<text x="300" y="14"  class="rt" opacity=".06">0</text>
<text x="300" y="28"  class="rt" opacity=".10">1</text>
<text x="300" y="42"  class="rt" opacity=".17">0</text>
<text x="300" y="56"  class="rt" opacity=".26">0</text>
<text x="300" y="70"  class="rt" opacity=".38">1</text>
<text x="300" y="84"  class="rt" opacity=".53">1</text>
<text x="300" y="98"  class="rt" opacity=".70">0</text>
<text x="300" y="112" fill="#cce8ff">1</text>
</g>

<!-- Col 9 x=340 dur=3.2s del=-2.5s GLITCH_B -->
<g style="animation:fall 3.2s -2.5s linear infinite">
<text x="340" y="0"   class="rt" opacity=".03">0</text>
<text x="340" y="14"  class="rt" opacity=".06">1</text>
<text x="340" y="28"  class="rt" opacity=".10">1</text>
<text x="340" y="42"  class="rt" opacity=".17">1</text>
<text x="340" y="56"  class="rt" opacity=".26">0</text>
<text x="340" y="70"  class="rt" opacity=".38">0</text>
<text x="340" y="84"  class="rt" opacity=".53">1</text>
<text x="340" y="98"  class="rt" opacity=".70">0</text>
<text x="340" y="112" style="fill:#cce8ff;animation:gb 6.0s -2.4s infinite">0</text>
</g>

<!-- Col 10 x=380 dur=3.6s del=-1.1s -->
<g style="animation:fall 3.6s -1.1s linear infinite">
<text x="380" y="0"   class="rt" opacity=".03">1</text>
<text x="380" y="14"  class="rt" opacity=".06">0</text>
<text x="380" y="28"  class="rt" opacity=".10">0</text>
<text x="380" y="42"  class="rt" opacity=".17">0</text>
<text x="380" y="56"  class="rt" opacity=".26">1</text>
<text x="380" y="70"  class="rt" opacity=".38">0</text>
<text x="380" y="84"  class="rt" opacity=".53">1</text>
<text x="380" y="98"  class="rt" opacity=".70">1</text>
<text x="380" y="112" fill="#cce8ff">1</text>
</g>

<!-- Col 11 x=420 dur=4.0s del=-0.2s -->
<g style="animation:fall 4.0s -0.2s linear infinite">
<text x="420" y="0"   class="rt" opacity=".03">0</text>
<text x="420" y="14"  class="rt" opacity=".06">1</text>
<text x="420" y="28"  class="rt" opacity=".10">0</text>
<text x="420" y="42"  class="rt" opacity=".17">1</text>
<text x="420" y="56"  class="rt" opacity=".26">0</text>
<text x="420" y="70"  class="rt" opacity=".38">1</text>
<text x="420" y="84"  class="rt" opacity=".53">1</text>
<text x="420" y="98"  class="rt" opacity=".70">0</text>
<text x="420" y="112" fill="#cce8ff">0</text>
</g>

<!-- Col 12 x=460 dur=4.4s del=-2.0s -->
<g style="animation:fall 4.4s -2.0s linear infinite">
<text x="460" y="0"   class="rt" opacity=".03">1</text>
<text x="460" y="14"  class="rt" opacity=".06">1</text>
<text x="460" y="28"  class="rt" opacity=".10">0</text>
<text x="460" y="42"  class="rt" opacity=".17">0</text>
<text x="460" y="56"  class="rt" opacity=".26">1</text>
<text x="460" y="70"  class="rt" opacity=".38">0</text>
<text x="460" y="84"  class="rt" opacity=".53">0</text>
<text x="460" y="98"  class="rt" opacity=".70">1</text>
<text x="460" y="112" fill="#cce8ff">1</text>
</g>

<!-- Col 13 x=500 dur=2.4s del=-0.8s GLITCH_C -->
<g style="animation:fall 2.4s -0.8s linear infinite">
<text x="500" y="0"   class="rt" opacity=".03">0</text>
<text x="500" y="14"  class="rt" opacity=".06">0</text>
<text x="500" y="28"  class="rt" opacity=".10">1</text>
<text x="500" y="42"  class="rt" opacity=".17">1</text>
<text x="500" y="56"  class="rt" opacity=".26">0</text>
<text x="500" y="70"  class="rt" opacity=".38">1</text>
<text x="500" y="84"  class="rt" opacity=".53">1</text>
<text x="500" y="98"  class="rt" opacity=".70">0</text>
<text x="500" y="112" style="fill:#cce8ff;animation:gc 4.8s -0.7s infinite">0</text>
</g>

<!-- Col 14 x=540 dur=2.8s del=-1.5s -->
<g style="animation:fall 2.8s -1.5s linear infinite">
<text x="540" y="0"   class="rt" opacity=".03">1</text>
<text x="540" y="14"  class="rt" opacity=".06">0</text>
<text x="540" y="28"  class="rt" opacity=".10">0</text>
<text x="540" y="42"  class="rt" opacity=".17">1</text>
<text x="540" y="56"  class="rt" opacity=".26">1</text>
<text x="540" y="70"  class="rt" opacity=".38">0</text>
<text x="540" y="84"  class="rt" opacity=".53">0</text>
<text x="540" y="98"  class="rt" opacity=".70">1</text>
<text x="540" y="112" fill="#cce8ff">1</text>
</g>

<!-- Col 15 x=580 dur=3.2s del=-2.3s -->
<g style="animation:fall 3.2s -2.3s linear infinite">
<text x="580" y="0"   class="rt" opacity=".03">0</text>
<text x="580" y="14"  class="rt" opacity=".06">1</text>
<text x="580" y="28"  class="rt" opacity=".10">1</text>
<text x="580" y="42"  class="rt" opacity=".17">0</text>
<text x="580" y="56"  class="rt" opacity=".26">0</text>
<text x="580" y="70"  class="rt" opacity=".38">1</text>
<text x="580" y="84"  class="rt" opacity=".53">1</text>
<text x="580" y="98"  class="rt" opacity=".70">0</text>
<text x="580" y="112" fill="#cce8ff">0</text>
</g>

<!-- Col 16 x=620 dur=3.6s del=-0.6s -->
<g style="animation:fall 3.6s -0.6s linear infinite">
<text x="620" y="0"   class="rt" opacity=".03">1</text>
<text x="620" y="14"  class="rt" opacity=".06">1</text>
<text x="620" y="28"  class="rt" opacity=".10">0</text>
<text x="620" y="42"  class="rt" opacity=".17">1</text>
<text x="620" y="56"  class="rt" opacity=".26">0</text>
<text x="620" y="70"  class="rt" opacity=".38">0</text>
<text x="620" y="84"  class="rt" opacity=".53">1</text>
<text x="620" y="98"  class="rt" opacity=".70">0</text>
<text x="620" y="112" fill="#cce8ff">1</text>
</g>

<!-- Col 17 x=660 dur=4.0s del=-1.7s -->
<g style="animation:fall 4.0s -1.7s linear infinite">
<text x="660" y="0"   class="rt" opacity=".03">0</text>
<text x="660" y="14"  class="rt" opacity=".06">0</text>
<text x="660" y="28"  class="rt" opacity=".10">1</text>
<text x="660" y="42"  class="rt" opacity=".17">0</text>
<text x="660" y="56"  class="rt" opacity=".26">1</text>
<text x="660" y="70"  class="rt" opacity=".38">1</text>
<text x="660" y="84"  class="rt" opacity=".53">0</text>
<text x="660" y="98"  class="rt" opacity=".70">1</text>
<text x="660" y="112" fill="#cce8ff">0</text>
</g>

<!-- Col 18 x=700 dur=4.4s del=-0.1s GLITCH_A -->
<g style="animation:fall 4.4s -0.1s linear infinite">
<text x="700" y="0"   class="rt" opacity=".03">1</text>
<text x="700" y="14"  class="rt" opacity=".06">0</text>
<text x="700" y="28"  class="rt" opacity=".10">0</text>
<text x="700" y="42"  class="rt" opacity=".17">1</text>
<text x="700" y="56"  class="rt" opacity=".26">0</text>
<text x="700" y="70"  class="rt" opacity=".38">1</text>
<text x="700" y="84"  class="rt" opacity=".53">1</text>
<text x="700" y="98"  class="rt" opacity=".70">0</text>
<text x="700" y="112" style="fill:#cce8ff;animation:ga 5.2s -3.1s infinite">1</text>
</g>

<!-- Col 19 x=740 dur=2.4s del=-2.2s -->
<g style="animation:fall 2.4s -2.2s linear infinite">
<text x="740" y="0"   class="rt" opacity=".03">0</text>
<text x="740" y="14"  class="rt" opacity=".06">1</text>
<text x="740" y="28"  class="rt" opacity=".10">1</text>
<text x="740" y="42"  class="rt" opacity=".17">0</text>
<text x="740" y="56"  class="rt" opacity=".26">1</text>
<text x="740" y="70"  class="rt" opacity=".38">0</text>
<text x="740" y="84"  class="rt" opacity=".53">0</text>
<text x="740" y="98"  class="rt" opacity=".70">1</text>
<text x="740" y="112" fill="#cce8ff">0</text>
</g>

<!-- Col 20 x=780 dur=2.8s del=-0.9s -->
<g style="animation:fall 2.8s -0.9s linear infinite">
<text x="780" y="0"   class="rt" opacity=".03">1</text>
<text x="780" y="14"  class="rt" opacity=".06">1</text>
<text x="780" y="28"  class="rt" opacity=".10">0</text>
<text x="780" y="42"  class="rt" opacity=".17">1</text>
<text x="780" y="56"  class="rt" opacity=".26">0</text>
<text x="780" y="70"  class="rt" opacity=".38">1</text>
<text x="780" y="84"  class="rt" opacity=".53">0</text>
<text x="780" y="98"  class="rt" opacity=".70">0</text>
<text x="780" y="112" fill="#cce8ff">1</text>
</g>

<!-- Col 21 x=820 dur=3.2s del=-1.3s GLITCH_B -->
<g style="animation:fall 3.2s -1.3s linear infinite">
<text x="820" y="0"   class="rt" opacity=".03">0</text>
<text x="820" y="14"  class="rt" opacity=".06">0</text>
<text x="820" y="28"  class="rt" opacity=".10">0</text>
<text x="820" y="42"  class="rt" opacity=".17">1</text>
<text x="820" y="56"  class="rt" opacity=".26">1</text>
<text x="820" y="70"  class="rt" opacity=".38">0</text>
<text x="820" y="84"  class="rt" opacity=".53">1</text>
<text x="820" y="98"  class="rt" opacity=".70">1</text>
<text x="820" y="112" style="fill:#cce8ff;animation:gb 7.0s -1.8s infinite">0</text>
</g>

<!-- Col 22 x=860 dur=3.6s del=-0.5s -->
<g style="animation:fall 3.6s -0.5s linear infinite">
<text x="860" y="0"   class="rt" opacity=".03">1</text>
<text x="860" y="14"  class="rt" opacity=".06">0</text>
<text x="860" y="28"  class="rt" opacity=".10">1</text>
<text x="860" y="42"  class="rt" opacity=".17">0</text>
<text x="860" y="56"  class="rt" opacity=".26">1</text>
<text x="860" y="70"  class="rt" opacity=".38">0</text>
<text x="860" y="84"  class="rt" opacity=".53">1</text>
<text x="860" y="98"  class="rt" opacity=".70">0</text>
<text x="860" y="112" fill="#cce8ff">1</text>
</g>

</g><!-- end rain clip -->

<!-- Perspective grid -->
<g stroke="#1e4d82" stroke-width="0.8" opacity="0.9">
  <!-- Vertical lines converging at VP (450, 220) -->
  <line x1="450" y1="220" x2="0"   y2="450"/>
  <line x1="450" y1="220" x2="75"  y2="450"/>
  <line x1="450" y1="220" x2="150" y2="450"/>
  <line x1="450" y1="220" x2="225" y2="450"/>
  <line x1="450" y1="220" x2="300" y2="450"/>
  <line x1="450" y1="220" x2="375" y2="450"/>
  <line x1="450" y1="220" x2="450" y2="450"/>
  <line x1="450" y1="220" x2="525" y2="450"/>
  <line x1="450" y1="220" x2="600" y2="450"/>
  <line x1="450" y1="220" x2="675" y2="450"/>
  <line x1="450" y1="220" x2="750" y2="450"/>
  <line x1="450" y1="220" x2="825" y2="450"/>
  <line x1="450" y1="220" x2="900" y2="450"/>
  <!-- Horizontal grid lines (bounded by perspective) -->
  <line x1="421" y1="235" x2="479" y2="235"/>
  <line x1="387" y1="252" x2="513" y2="252"/>
  <line x1="344" y1="274" x2="556" y2="274"/>
  <line x1="284" y1="305" x2="616" y2="305"/>
  <line x1="196" y1="350" x2="704" y2="350"/>
  <line x1="78"  y1="410" x2="822" y2="410"/>
  <line x1="0"   y1="450" x2="900" y2="450"/>
</g>

<!-- Horizon glow -->
<line x1="0" y1="220" x2="900" y2="220" stroke="#1a3d6e" stroke-width="3" opacity=".5"/>
<line x1="0" y1="220" x2="900" y2="220" stroke="#4488ff" stroke-width="1" opacity=".45"/>
</svg>
