<svg xmlns="http://www.w3.org/2000/svg" width="900" height="450" viewBox="0 0 900 450">
<defs>
<style>
.rg{font-family:'Courier New',Courier,monospace;font-size:13px;}
.rt{fill:#2e6299;}
@keyframes fall{from{transform:translateY(-200px)}to{transform:translateY(450px)}}
@keyframes f0{0%,49.9%{opacity:1}50%,100%{opacity:0}}
@keyframes f1{0%,49.9%{opacity:0}50%,100%{opacity:1}}
@keyframes gna{0%,52%,100%{opacity:1}54%,70%{opacity:0}}
@keyframes gnb{0%,33%,100%{opacity:1}35%,52%{opacity:0}}
@keyframes gnc{0%,68%,100%{opacity:1}70%,87%{opacity:0}}
@keyframes gga{
  0%,52%,100%{opacity:0;filter:none}
  54%{opacity:1;fill:#ff2020;filter:drop-shadow(8px 0 0 rgba(255,20,20,.6))}
  57%{opacity:1;fill:#ff2020;filter:drop-shadow(-7px 0 0 rgba(255,20,20,.55))}
  60%{opacity:1;fill:#ff2020;filter:drop-shadow(6px 0 0 rgba(255,20,20,.55))}
  63%{opacity:1;fill:#ff2020;filter:none}
  65%{opacity:1;fill:#ff5533}
  67%{opacity:1;fill:#ff2020;filter:drop-shadow(-5px 0 0 rgba(255,20,20,.5))}
  69%{opacity:1;fill:#ff2020}
  70%{opacity:0;filter:none}
}
@keyframes ggb{
  0%,33%,100%{opacity:0;filter:none}
  35%{opacity:1;fill:#ff2020;filter:drop-shadow(-8px 0 0 rgba(255,20,20,.55))}
  38%{opacity:1;fill:#ff2020;filter:drop-shadow(6px 0 0 rgba(255,20,20,.6))}
  41%{opacity:1;fill:#ff2020;filter:drop-shadow(-5px 0 0 rgba(255,20,20,.5))}
  44%{opacity:1;fill:#ff2020;filter:none}
  46%{opacity:1;fill:#ff5533}
  49%{opacity:1;fill:#ff2020;filter:drop-shadow(4px 0 0 rgba(255,20,20,.45))}
  51%{opacity:1;fill:#ff2020}
  52%{opacity:0;filter:none}
}
@keyframes ggc{
  0%,68%,100%{opacity:0;filter:none}
  70%{opacity:1;fill:#ff2020;filter:drop-shadow(7px 0 0 rgba(255,20,20,.55))}
  72%{opacity:1;fill:#ff2020;filter:drop-shadow(-9px 0 0 rgba(255,20,20,.6))}
  74%{opacity:1;fill:#ff2020;filter:drop-shadow(6px 0 0 rgba(255,20,20,.55))}
  76%{opacity:1;fill:#ff2020;filter:none}
  78%{opacity:1;fill:#ff5533}
  80%{opacity:1;fill:#ff2020;filter:drop-shadow(-4px 0 0 rgba(255,20,20,.45))}
  82%{opacity:1;fill:#ff2020}
  84%{opacity:1;fill:#ff8866}
  86%{opacity:1;fill:#ff2020;filter:drop-shadow(5px 0 0 rgba(255,20,20,.45))}
  87%{opacity:0;filter:none}
}
</style>
<clipPath id="sky"><rect x="0" y="0" width="900" height="220"/></clipPath>
<radialGradient id="atmo" cx="50%" cy="100%" r="60%" gradientUnits="objectBoundingBox">
  <stop offset="0%" stop-color="#182848" stop-opacity="1"/>
  <stop offset="100%" stop-color="#030810" stop-opacity="0"/>
</radialGradient>
<radialGradient id="sg" cx="50%" cy="100%" r="55%" gradientUnits="objectBoundingBox">
  <stop offset="0%" stop-color="#2255cc" stop-opacity=".45"/>
  <stop offset="65%" stop-color="#1133aa" stop-opacity=".15"/>
  <stop offset="100%" stop-color="#061122" stop-opacity="0"/>
</radialGradient>
<linearGradient id="sf" x1="0" y1="0" x2="0" y2="1">
  <stop offset="0%" stop-color="#99bbff"/>
  <stop offset="50%" stop-color="#5577ee"/>
  <stop offset="100%" stop-color="#2244cc"/>
</linearGradient>
</defs>

<rect width="900" height="450" fill="#020709"/>
<rect width="900" height="220" fill="url(#atmo)"/>
<ellipse cx="450" cy="220" rx="220" ry="95" fill="url(#sg)"/>
<rect x="0" y="220" width="900" height="230" fill="#020709"/>
<circle cx="450" cy="226" r="72" fill="url(#sf)" clip-path="url(#sky)"/>
<circle cx="450" cy="226" r="54" fill="#ccdcff" opacity=".15" clip-path="url(#sky)"/>

<g clip-path="url(#sky)" class="rg">

<!-- col1 x=20 2.4s -0.5s f=.35s+0s -->
<g style="animation:fall 2.4s -0.5s linear infinite,f0 .35s 0s step-end infinite">
<text x="20" y="0" class="rt" opacity=".03">1</text><text x="20" y="14" class="rt" opacity=".06">0</text><text x="20" y="28" class="rt" opacity=".10">1</text>
<text x="20" y="42" class="rt" opacity=".17">1</text><text x="20" y="56" class="rt" opacity=".26">0</text><text x="20" y="70" class="rt" opacity=".38">1</text>
<text x="20" y="84" class="rt" opacity=".53">0</text><text x="20" y="98" class="rt" opacity=".70">1</text><text x="20" y="112" fill="#cce8ff">0</text>
</g>
<g style="animation:fall 2.4s -0.5s linear infinite,f1 .35s 0s step-end infinite">
<text x="20" y="0" class="rt" opacity=".03">0</text><text x="20" y="14" class="rt" opacity=".06">1</text><text x="20" y="28" class="rt" opacity=".10">0</text>
<text x="20" y="42" class="rt" opacity=".17">0</text><text x="20" y="56" class="rt" opacity=".26">1</text><text x="20" y="70" class="rt" opacity=".38">0</text>
<text x="20" y="84" class="rt" opacity=".53">1</text><text x="20" y="98" class="rt" opacity=".70">0</text><text x="20" y="112" fill="#cce8ff">1</text>
</g>

<!-- col2 x=60 2.8s -1.8s f=.28s+.14s -->
<g style="animation:fall 2.8s -1.8s linear infinite,f0 .28s .14s step-end infinite">
<text x="60" y="0" class="rt" opacity=".03">0</text><text x="60" y="14" class="rt" opacity=".06">1</text><text x="60" y="28" class="rt" opacity=".10">0</text>
<text x="60" y="42" class="rt" opacity=".17">0</text><text x="60" y="56" class="rt" opacity=".26">1</text><text x="60" y="70" class="rt" opacity=".38">0</text>
<text x="60" y="84" class="rt" opacity=".53">1</text><text x="60" y="98" class="rt" opacity=".70">0</text><text x="60" y="112" fill="#cce8ff">1</text>
</g>
<g style="animation:fall 2.8s -1.8s linear infinite,f1 .28s .14s step-end infinite">
<text x="60" y="0" class="rt" opacity=".03">1</text><text x="60" y="14" class="rt" opacity=".06">0</text><text x="60" y="28" class="rt" opacity=".10">1</text>
<text x="60" y="42" class="rt" opacity=".17">1</text><text x="60" y="56" class="rt" opacity=".26">0</text><text x="60" y="70" class="rt" opacity=".38">1</text>
<text x="60" y="84" class="rt" opacity=".53">0</text><text x="60" y="98" class="rt" opacity=".70">1</text><text x="60" y="112" fill="#cce8ff">0</text>
</g>

<!-- col3 x=100 3.2s -0.3s f=.42s+.07s -->
<g style="animation:fall 3.2s -0.3s linear infinite,f0 .42s .07s step-end infinite">
<text x="100" y="0" class="rt" opacity=".03">1</text><text x="100" y="14" class="rt" opacity=".06">1</text><text x="100" y="28" class="rt" opacity=".10">0</text>
<text x="100" y="42" class="rt" opacity=".17">1</text><text x="100" y="56" class="rt" opacity=".26">0</text><text x="100" y="70" class="rt" opacity=".38">0</text>
<text x="100" y="84" class="rt" opacity=".53">1</text><text x="100" y="98" class="rt" opacity=".70">1</text><text x="100" y="112" fill="#cce8ff">0</text>
</g>
<g style="animation:fall 3.2s -0.3s linear infinite,f1 .42s .07s step-end infinite">
<text x="100" y="0" class="rt" opacity=".03">0</text><text x="100" y="14" class="rt" opacity=".06">0</text><text x="100" y="28" class="rt" opacity=".10">1</text>
<text x="100" y="42" class="rt" opacity=".17">0</text><text x="100" y="56" class="rt" opacity=".26">1</text><text x="100" y="70" class="rt" opacity=".38">1</text>
<text x="100" y="84" class="rt" opacity=".53">0</text><text x="100" y="98" class="rt" opacity=".70">0</text><text x="100" y="112" fill="#cce8ff">1</text>
</g>

<!-- col4 x=140 3.6s -2.1s f=.31s+.22s GLITCH_A 5.5s -1.2s -->
<g style="animation:fall 3.6s -2.1s linear infinite,f0 .31s .22s step-end infinite">
<text x="140" y="0" class="rt" opacity=".03">1</text><text x="140" y="14" class="rt" opacity=".06">0</text><text x="140" y="28" class="rt" opacity=".10">0</text>
<text x="140" y="42" class="rt" opacity=".17">1</text><text x="140" y="56" class="rt" opacity=".26">1</text><text x="140" y="70" class="rt" opacity=".38">0</text>
<text x="140" y="84" class="rt" opacity=".53">1</text><text x="140" y="98" class="rt" opacity=".70">0</text>
<text x="140" y="112" style="fill:#cce8ff;animation:gna 5.5s -1.2s infinite">1</text>
</g>
<g style="animation:fall 3.6s -2.1s linear infinite,f1 .31s .22s step-end infinite">
<text x="140" y="0" class="rt" opacity=".03">0</text><text x="140" y="14" class="rt" opacity=".06">1</text><text x="140" y="28" class="rt" opacity=".10">1</text>
<text x="140" y="42" class="rt" opacity=".17">0</text><text x="140" y="56" class="rt" opacity=".26">0</text><text x="140" y="70" class="rt" opacity=".38">1</text>
<text x="140" y="84" class="rt" opacity=".53">0</text><text x="140" y="98" class="rt" opacity=".70">1</text>
<text x="140" y="112" style="fill:#cce8ff;animation:gna 5.5s -1.2s infinite">0</text>
</g>
<text x="140" y="112" class="rg" style="opacity:0;animation:fall 3.6s -2.1s linear infinite,gga 5.5s -1.2s infinite;font-size:15px">1&#x0336;&#x0347;&#x033C;&#x032A;&#x031E;&#x0320;&#x031F;&#x033B;&#x031F;&#x0324;&#x031D;&#x032A;&#x031C;&#x0316;&#x030B;&#x0311;&#x030C;&#x030C;&#x0342;&#x0342;&#x030A;&#x030A;&#x0348;&#x033E;&#x030B;&#x0344;&#x0305;&#x0315;&#x0358;&#x031C;&#x0308;&#x0354;</text>

<!-- col5 x=180 4.0s -1.4s f=.38s+.09s -->
<g style="animation:fall 4.0s -1.4s linear infinite,f0 .38s .09s step-end infinite">
<text x="180" y="0" class="rt" opacity=".03">0</text><text x="180" y="14" class="rt" opacity=".06">1</text><text x="180" y="28" class="rt" opacity=".10">1</text>
<text x="180" y="42" class="rt" opacity=".17">0</text><text x="180" y="56" class="rt" opacity=".26">1</text><text x="180" y="70" class="rt" opacity=".38">0</text>
<text x="180" y="84" class="rt" opacity=".53">0</text><text x="180" y="98" class="rt" opacity=".70">1</text><text x="180" y="112" fill="#cce8ff">0</text>
</g>
<g style="animation:fall 4.0s -1.4s linear infinite,f1 .38s .09s step-end infinite">
<text x="180" y="0" class="rt" opacity=".03">1</text><text x="180" y="14" class="rt" opacity=".06">0</text><text x="180" y="28" class="rt" opacity=".10">0</text>
<text x="180" y="42" class="rt" opacity=".17">1</text><text x="180" y="56" class="rt" opacity=".26">0</text><text x="180" y="70" class="rt" opacity=".38">1</text>
<text x="180" y="84" class="rt" opacity=".53">1</text><text x="180" y="98" class="rt" opacity=".70">0</text><text x="180" y="112" fill="#cce8ff">1</text>
</g>

<!-- col6 x=220 4.4s -0.7s f=.25s+.18s -->
<g style="animation:fall 4.4s -0.7s linear infinite,f0 .25s .18s step-end infinite">
<text x="220" y="0" class="rt" opacity=".03">1</text><text x="220" y="14" class="rt" opacity=".06">0</text><text x="220" y="28" class="rt" opacity=".10">1</text>
<text x="220" y="42" class="rt" opacity=".17">0</text><text x="220" y="56" class="rt" opacity=".26">1</text><text x="220" y="70" class="rt" opacity=".38">1</text>
<text x="220" y="84" class="rt" opacity=".53">0</text><text x="220" y="98" class="rt" opacity=".70">0</text><text x="220" y="112" fill="#cce8ff">1</text>
</g>
<g style="animation:fall 4.4s -0.7s linear infinite,f1 .25s .18s step-end infinite">
<text x="220" y="0" class="rt" opacity=".03">0</text><text x="220" y="14" class="rt" opacity=".06">1</text><text x="220" y="28" class="rt" opacity=".10">0</text>
<text x="220" y="42" class="rt" opacity=".17">1</text><text x="220" y="56" class="rt" opacity=".26">0</text><text x="220" y="70" class="rt" opacity=".38">0</text>
<text x="220" y="84" class="rt" opacity=".53">1</text><text x="220" y="98" class="rt" opacity=".70">1</text><text x="220" y="112" fill="#cce8ff">0</text>
</g>

<!-- col7 x=260 2.4s -1.9s f=.44s+.03s -->
<g style="animation:fall 2.4s -1.9s linear infinite,f0 .44s .03s step-end infinite">
<text x="260" y="0" class="rt" opacity=".03">0</text><text x="260" y="14" class="rt" opacity=".06">1</text><text x="260" y="28" class="rt" opacity=".10">0</text>
<text x="260" y="42" class="rt" opacity=".17">1</text><text x="260" y="56" class="rt" opacity=".26">1</text><text x="260" y="70" class="rt" opacity=".38">0</text>
<text x="260" y="84" class="rt" opacity=".53">1</text><text x="260" y="98" class="rt" opacity=".70">0</text><text x="260" y="112" fill="#cce8ff">0</text>
</g>
<g style="animation:fall 2.4s -1.9s linear infinite,f1 .44s .03s step-end infinite">
<text x="260" y="0" class="rt" opacity=".03">1</text><text x="260" y="14" class="rt" opacity=".06">0</text><text x="260" y="28" class="rt" opacity=".10">1</text>
<text x="260" y="42" class="rt" opacity=".17">0</text><text x="260" y="56" class="rt" opacity=".26">0</text><text x="260" y="70" class="rt" opacity=".38">1</text>
<text x="260" y="84" class="rt" opacity=".53">0</text><text x="260" y="98" class="rt" opacity=".70">1</text><text x="260" y="112" fill="#cce8ff">1</text>
</g>

<!-- col8 x=300 2.8s -0.4s f=.32s+.16s -->
<g style="animation:fall 2.8s -0.4s linear infinite,f0 .32s .16s step-end infinite">
<text x="300" y="0" class="rt" opacity=".03">1</text><text x="300" y="14" class="rt" opacity=".06">0</text><text x="300" y="28" class="rt" opacity=".10">1</text>
<text x="300" y="42" class="rt" opacity=".17">0</text><text x="300" y="56" class="rt" opacity=".26">0</text><text x="300" y="70" class="rt" opacity=".38">1</text>
<text x="300" y="84" class="rt" opacity=".53">1</text><text x="300" y="98" class="rt" opacity=".70">0</text><text x="300" y="112" fill="#cce8ff">1</text>
</g>
<g style="animation:fall 2.8s -0.4s linear infinite,f1 .32s .16s step-end infinite">
<text x="300" y="0" class="rt" opacity=".03">0</text><text x="300" y="14" class="rt" opacity=".06">1</text><text x="300" y="28" class="rt" opacity=".10">0</text>
<text x="300" y="42" class="rt" opacity=".17">1</text><text x="300" y="56" class="rt" opacity=".26">1</text><text x="300" y="70" class="rt" opacity=".38">0</text>
<text x="300" y="84" class="rt" opacity=".53">0</text><text x="300" y="98" class="rt" opacity=".70">1</text><text x="300" y="112" fill="#cce8ff">0</text>
</g>

<!-- col9 x=340 3.2s -2.5s f=.29s+.05s GLITCH_B 6.0s -2.4s -->
<g style="animation:fall 3.2s -2.5s linear infinite,f0 .29s .05s step-end infinite">
<text x="340" y="0" class="rt" opacity=".03">0</text><text x="340" y="14" class="rt" opacity=".06">1</text><text x="340" y="28" class="rt" opacity=".10">1</text>
<text x="340" y="42" class="rt" opacity=".17">1</text><text x="340" y="56" class="rt" opacity=".26">0</text><text x="340" y="70" class="rt" opacity=".38">0</text>
<text x="340" y="84" class="rt" opacity=".53">1</text><text x="340" y="98" class="rt" opacity=".70">0</text>
<text x="340" y="112" style="fill:#cce8ff;animation:gnb 6.0s -2.4s infinite">0</text>
</g>
<g style="animation:fall 3.2s -2.5s linear infinite,f1 .29s .05s step-end infinite">
<text x="340" y="0" class="rt" opacity=".03">1</text><text x="340" y="14" class="rt" opacity=".06">0</text><text x="340" y="28" class="rt" opacity=".10">0</text>
<text x="340" y="42" class="rt" opacity=".17">0</text><text x="340" y="56" class="rt" opacity=".26">1</text><text x="340" y="70" class="rt" opacity=".38">1</text>
<text x="340" y="84" class="rt" opacity=".53">0</text><text x="340" y="98" class="rt" opacity=".70">1</text>
<text x="340" y="112" style="fill:#cce8ff;animation:gnb 6.0s -2.4s infinite">1</text>
</g>
<text x="340" y="112" class="rg" style="opacity:0;animation:fall 3.2s -2.5s linear infinite,ggb 6.0s -2.4s infinite;font-size:15px">0&#x0336;&#x0347;&#x033C;&#x032A;&#x031E;&#x0320;&#x031F;&#x033B;&#x031F;&#x0324;&#x031D;&#x032A;&#x031C;&#x0316;&#x030B;&#x0311;&#x030C;&#x030C;&#x0342;&#x0342;&#x030A;&#x030A;&#x0348;&#x033E;&#x030B;&#x0344;&#x0305;&#x0315;&#x0358;&#x031C;</text>

<!-- col10 x=380 3.6s -1.1s f=.41s+.20s -->
<g style="animation:fall 3.6s -1.1s linear infinite,f0 .41s .20s step-end infinite">
<text x="380" y="0" class="rt" opacity=".03">1</text><text x="380" y="14" class="rt" opacity=".06">0</text><text x="380" y="28" class="rt" opacity=".10">0</text>
<text x="380" y="42" class="rt" opacity=".17">0</text><text x="380" y="56" class="rt" opacity=".26">1</text><text x="380" y="70" class="rt" opacity=".38">0</text>
<text x="380" y="84" class="rt" opacity=".53">1</text><text x="380" y="98" class="rt" opacity=".70">1</text><text x="380" y="112" fill="#cce8ff">1</text>
</g>
<g style="animation:fall 3.6s -1.1s linear infinite,f1 .41s .20s step-end infinite">
<text x="380" y="0" class="rt" opacity=".03">0</text><text x="380" y="14" class="rt" opacity=".06">1</text><text x="380" y="28" class="rt" opacity=".10">1</text>
<text x="380" y="42" class="rt" opacity=".17">1</text><text x="380" y="56" class="rt" opacity=".26">0</text><text x="380" y="70" class="rt" opacity=".38">1</text>
<text x="380" y="84" class="rt" opacity=".53">0</text><text x="380" y="98" class="rt" opacity=".70">0</text><text x="380" y="112" fill="#cce8ff">0</text>
</g>

<!-- col11 x=420 4.0s -0.2s f=.36s+.11s -->
<g style="animation:fall 4.0s -0.2s linear infinite,f0 .36s .11s step-end infinite">
<text x="420" y="0" class="rt" opacity=".03">0</text><text x="420" y="14" class="rt" opacity=".06">1</text><text x="420" y="28" class="rt" opacity=".10">0</text>
<text x="420" y="42" class="rt" opacity=".17">1</text><text x="420" y="56" class="rt" opacity=".26">0</text><text x="420" y="70" class="rt" opacity=".38">1</text>
<text x="420" y="84" class="rt" opacity=".53">1</text><text x="420" y="98" class="rt" opacity=".70">0</text><text x="420" y="112" fill="#cce8ff">0</text>
</g>
<g style="animation:fall 4.0s -0.2s linear infinite,f1 .36s .11s step-end infinite">
<text x="420" y="0" class="rt" opacity=".03">1</text><text x="420" y="14" class="rt" opacity=".06">0</text><text x="420" y="28" class="rt" opacity=".10">1</text>
<text x="420" y="42" class="rt" opacity=".17">0</text><text x="420" y="56" class="rt" opacity=".26">1</text><text x="420" y="70" class="rt" opacity=".38">0</text>
<text x="420" y="84" class="rt" opacity=".53">0</text><text x="420" y="98" class="rt" opacity=".70">1</text><text x="420" y="112" fill="#cce8ff">1</text>
</g>

<!-- col12 x=460 4.4s -2.0s f=.27s+.23s -->
<g style="animation:fall 4.4s -2.0s linear infinite,f0 .27s .23s step-end infinite">
<text x="460" y="0" class="rt" opacity=".03">1</text><text x="460" y="14" class="rt" opacity=".06">1</text><text x="460" y="28" class="rt" opacity=".10">0</text>
<text x="460" y="42" class="rt" opacity=".17">0</text><text x="460" y="56" class="rt" opacity=".26">1</text><text x="460" y="70" class="rt" opacity=".38">0</text>
<text x="460" y="84" class="rt" opacity=".53">0</text><text x="460" y="98" class="rt" opacity=".70">1</text><text x="460" y="112" fill="#cce8ff">1</text>
</g>
<g style="animation:fall 4.4s -2.0s linear infinite,f1 .27s .23s step-end infinite">
<text x="460" y="0" class="rt" opacity=".03">0</text><text x="460" y="14" class="rt" opacity=".06">0</text><text x="460" y="28" class="rt" opacity=".10">1</text>
<text x="460" y="42" class="rt" opacity=".17">1</text><text x="460" y="56" class="rt" opacity=".26">0</text><text x="460" y="70" class="rt" opacity=".38">1</text>
<text x="460" y="84" class="rt" opacity=".53">1</text><text x="460" y="98" class="rt" opacity=".70">0</text><text x="460" y="112" fill="#cce8ff">0</text>
</g>

<!-- col13 x=500 2.4s -0.8s f=.43s+.06s GLITCH_C 4.8s -0.7s -->
<g style="animation:fall 2.4s -0.8s linear infinite,f0 .43s .06s step-end infinite">
<text x="500" y="0" class="rt" opacity=".03">0</text><text x="500" y="14" class="rt" opacity=".06">0</text><text x="500" y="28" class="rt" opacity=".10">1</text>
<text x="500" y="42" class="rt" opacity=".17">1</text><text x="500" y="56" class="rt" opacity=".26">0</text><text x="500" y="70" class="rt" opacity=".38">1</text>
<text x="500" y="84" class="rt" opacity=".53">1</text><text x="500" y="98" class="rt" opacity=".70">0</text>
<text x="500" y="112" style="fill:#cce8ff;animation:gnc 4.8s -0.7s infinite">0</text>
</g>
<g style="animation:fall 2.4s -0.8s linear infinite,f1 .43s .06s step-end infinite">
<text x="500" y="0" class="rt" opacity=".03">1</text><text x="500" y="14" class="rt" opacity=".06">1</text><text x="500" y="28" class="rt" opacity=".10">0</text>
<text x="500" y="42" class="rt" opacity=".17">0</text><text x="500" y="56" class="rt" opacity=".26">1</text><text x="500" y="70" class="rt" opacity=".38">0</text>
<text x="500" y="84" class="rt" opacity=".53">0</text><text x="500" y="98" class="rt" opacity=".70">1</text>
<text x="500" y="112" style="fill:#cce8ff;animation:gnc 4.8s -0.7s infinite">1</text>
</g>
<text x="500" y="112" class="rg" style="opacity:0;animation:fall 2.4s -0.8s linear infinite,ggc 4.8s -0.7s infinite;font-size:15px">0&#x0336;&#x0347;&#x033C;&#x032A;&#x031E;&#x0320;&#x031F;&#x033B;&#x031F;&#x0324;&#x031D;&#x032A;&#x031C;&#x0316;&#x030B;&#x0311;&#x030C;&#x030C;&#x0342;&#x0342;&#x030A;&#x030A;&#x0348;&#x033E;&#x030B;&#x0344;&#x0305;&#x0315;&#x0358;&#x031C;</text>

<!-- col14 x=540 2.8s -1.5s f=.33s+.17s -->
<g style="animation:fall 2.8s -1.5s linear infinite,f0 .33s .17s step-end infinite">
<text x="540" y="0" class="rt" opacity=".03">1</text><text x="540" y="14" class="rt" opacity=".06">0</text><text x="540" y="28" class="rt" opacity=".10">0</text>
<text x="540" y="42" class="rt" opacity=".17">1</text><text x="540" y="56" class="rt" opacity=".26">1</text><text x="540" y="70" class="rt" opacity=".38">0</text>
<text x="540" y="84" class="rt" opacity=".53">0</text><text x="540" y="98" class="rt" opacity=".70">1</text><text x="540" y="112" fill="#cce8ff">1</text>
</g>
<g style="animation:fall 2.8s -1.5s linear infinite,f1 .33s .17s step-end infinite">
<text x="540" y="0" class="rt" opacity=".03">0</text><text x="540" y="14" class="rt" opacity=".06">1</text><text x="540" y="28" class="rt" opacity=".10">1</text>
<text x="540" y="42" class="rt" opacity=".17">0</text><text x="540" y="56" class="rt" opacity=".26">0</text><text x="540" y="70" class="rt" opacity=".38">1</text>
<text x="540" y="84" class="rt" opacity=".53">1</text><text x="540" y="98" class="rt" opacity=".70">0</text><text x="540" y="112" fill="#cce8ff">0</text>
</g>

<!-- col15 x=580 3.2s -2.3s f=.26s+.02s -->
<g style="animation:fall 3.2s -2.3s linear infinite,f0 .26s .02s step-end infinite">
<text x="580" y="0" class="rt" opacity=".03">0</text><text x="580" y="14" class="rt" opacity=".06">1</text><text x="580" y="28" class="rt" opacity=".10">1</text>
<text x="580" y="42" class="rt" opacity=".17">0</text><text x="580" y="56" class="rt" opacity=".26">0</text><text x="580" y="70" class="rt" opacity=".38">1</text>
<text x="580" y="84" class="rt" opacity=".53">1</text><text x="580" y="98" class="rt" opacity=".70">0</text><text x="580" y="112" fill="#cce8ff">0</text>
</g>
<g style="animation:fall 3.2s -2.3s linear infinite,f1 .26s .02s step-end infinite">
<text x="580" y="0" class="rt" opacity=".03">1</text><text x="580" y="14" class="rt" opacity=".06">0</text><text x="580" y="28" class="rt" opacity=".10">0</text>
<text x="580" y="42" class="rt" opacity=".17">1</text><text x="580" y="56" class="rt" opacity=".26">1</text><text x="580" y="70" class="rt" opacity=".38">0</text>
<text x="580" y="84" class="rt" opacity=".53">0</text><text x="580" y="98" class="rt" opacity=".70">1</text><text x="580" y="112" fill="#cce8ff">1</text>
</g>

<!-- col16 x=620 3.6s -0.6s f=.45s+.21s -->
<g style="animation:fall 3.6s -0.6s linear infinite,f0 .45s .21s step-end infinite">
<text x="620" y="0" class="rt" opacity=".03">1</text><text x="620" y="14" class="rt" opacity=".06">1</text><text x="620" y="28" class="rt" opacity=".10">0</text>
<text x="620" y="42" class="rt" opacity=".17">1</text><text x="620" y="56" class="rt" opacity=".26">0</text><text x="620" y="70" class="rt" opacity=".38">0</text>
<text x="620" y="84" class="rt" opacity=".53">1</text><text x="620" y="98" class="rt" opacity=".70">0</text><text x="620" y="112" fill="#cce8ff">1</text>
</g>
<g style="animation:fall 3.6s -0.6s linear infinite,f1 .45s .21s step-end infinite">
<text x="620" y="0" class="rt" opacity=".03">0</text><text x="620" y="14" class="rt" opacity=".06">0</text><text x="620" y="28" class="rt" opacity=".10">1</text>
<text x="620" y="42" class="rt" opacity=".17">0</text><text x="620" y="56" class="rt" opacity=".26">1</text><text x="620" y="70" class="rt" opacity=".38">1</text>
<text x="620" y="84" class="rt" opacity=".53">0</text><text x="620" y="98" class="rt" opacity=".70">1</text><text x="620" y="112" fill="#cce8ff">0</text>
</g>

<!-- col17 x=660 4.0s -1.7s f=.30s+.08s -->
<g style="animation:fall 4.0s -1.7s linear infinite,f0 .30s .08s step-end infinite">
<text x="660" y="0" class="rt" opacity=".03">0</text><text x="660" y="14" class="rt" opacity=".06">0</text><text x="660" y="28" class="rt" opacity=".10">1</text>
<text x="660" y="42" class="rt" opacity=".17">0</text><text x="660" y="56" class="rt" opacity=".26">1</text><text x="660" y="70" class="rt" opacity=".38">1</text>
<text x="660" y="84" class="rt" opacity=".53">0</text><text x="660" y="98" class="rt" opacity=".70">1</text><text x="660" y="112" fill="#cce8ff">0</text>
</g>
<g style="animation:fall 4.0s -1.7s linear infinite,f1 .30s .08s step-end infinite">
<text x="660" y="0" class="rt" opacity=".03">1</text><text x="660" y="14" class="rt" opacity=".06">1</text><text x="660" y="28" class="rt" opacity=".10">0</text>
<text x="660" y="42" class="rt" opacity=".17">1</text><text x="660" y="56" class="rt" opacity=".26">0</text><text x="660" y="70" class="rt" opacity=".38">0</text>
<text x="660" y="84" class="rt" opacity=".53">1</text><text x="660" y="98" class="rt" opacity=".70">0</text><text x="660" y="112" fill="#cce8ff">1</text>
</g>

<!-- col18 x=700 4.4s -0.1s f=.38s+.15s GLITCH_A 5.2s -3.1s -->
<g style="animation:fall 4.4s -0.1s linear infinite,f0 .38s .15s step-end infinite">
<text x="700" y="0" class="rt" opacity=".03">1</text><text x="700" y="14" class="rt" opacity=".06">0</text><text x="700" y="28" class="rt" opacity=".10">0</text>
<text x="700" y="42" class="rt" opacity=".17">1</text><text x="700" y="56" class="rt" opacity=".26">0</text><text x="700" y="70" class="rt" opacity=".38">1</text>
<text x="700" y="84" class="rt" opacity=".53">1</text><text x="700" y="98" class="rt" opacity=".70">0</text>
<text x="700" y="112" style="fill:#cce8ff;animation:gna 5.2s -3.1s infinite">1</text>
</g>
<g style="animation:fall 4.4s -0.1s linear infinite,f1 .38s .15s step-end infinite">
<text x="700" y="0" class="rt" opacity=".03">0</text><text x="700" y="14" class="rt" opacity=".06">1</text><text x="700" y="28" class="rt" opacity=".10">1</text>
<text x="700" y="42" class="rt" opacity=".17">0</text><text x="700" y="56" class="rt" opacity=".26">1</text><text x="700" y="70" class="rt" opacity=".38">0</text>
<text x="700" y="84" class="rt" opacity=".53">0</text><text x="700" y="98" class="rt" opacity=".70">1</text>
<text x="700" y="112" style="fill:#cce8ff;animation:gna 5.2s -3.1s infinite">0</text>
</g>
<text x="700" y="112" class="rg" style="opacity:0;animation:fall 4.4s -0.1s linear infinite,gga 5.2s -3.1s infinite;font-size:15px">1&#x0336;&#x0347;&#x033C;&#x032A;&#x031E;&#x0320;&#x031F;&#x033B;&#x031F;&#x0324;&#x031D;&#x032A;&#x031C;&#x0316;&#x030B;&#x0311;&#x030C;&#x030C;&#x0342;&#x0342;&#x030A;&#x030A;&#x0348;&#x033E;&#x030B;&#x0344;&#x0305;&#x0315;&#x0358;&#x031C;</text>

<!-- col19 x=740 2.4s -2.2s f=.24s+.04s -->
<g style="animation:fall 2.4s -2.2s linear infinite,f0 .24s .04s step-end infinite">
<text x="740" y="0" class="rt" opacity=".03">0</text><text x="740" y="14" class="rt" opacity=".06">1</text><text x="740" y="28" class="rt" opacity=".10">1</text>
<text x="740" y="42" class="rt" opacity=".17">0</text><text x="740" y="56" class="rt" opacity=".26">1</text><text x="740" y="70" class="rt" opacity=".38">0</text>
<text x="740" y="84" class="rt" opacity=".53">0</text><text x="740" y="98" class="rt" opacity=".70">1</text><text x="740" y="112" fill="#cce8ff">0</text>
</g>
<g style="animation:fall 2.4s -2.2s linear infinite,f1 .24s .04s step-end infinite">
<text x="740" y="0" class="rt" opacity=".03">1</text><text x="740" y="14" class="rt" opacity=".06">0</text><text x="740" y="28" class="rt" opacity=".10">0</text>
<text x="740" y="42" class="rt" opacity=".17">1</text><text x="740" y="56" class="rt" opacity=".26">0</text><text x="740" y="70" class="rt" opacity=".38">1</text>
<text x="740" y="84" class="rt" opacity=".53">1</text><text x="740" y="98" class="rt" opacity=".70">0</text><text x="740" y="112" fill="#cce8ff">1</text>
</g>

<!-- col20 x=780 2.8s -0.9s f=.40s+.19s -->
<g style="animation:fall 2.8s -0.9s linear infinite,f0 .40s .19s step-end infinite">
<text x="780" y="0" class="rt" opacity=".03">1</text><text x="780" y="14" class="rt" opacity=".06">1</text><text x="780" y="28" class="rt" opacity=".10">0</text>
<text x="780" y="42" class="rt" opacity=".17">1</text><text x="780" y="56" class="rt" opacity=".26">0</text><text x="780" y="70" class="rt" opacity=".38">1</text>
<text x="780" y="84" class="rt" opacity=".53">0</text><text x="780" y="98" class="rt" opacity=".70">0</text><text x="780" y="112" fill="#cce8ff">1</text>
</g>
<g style="animation:fall 2.8s -0.9s linear infinite,f1 .40s .19s step-end infinite">
<text x="780" y="0" class="rt" opacity=".03">0</text><text x="780" y="14" class="rt" opacity=".06">0</text><text x="780" y="28" class="rt" opacity=".10">1</text>
<text x="780" y="42" class="rt" opacity=".17">0</text><text x="780" y="56" class="rt" opacity=".26">1</text><text x="780" y="70" class="rt" opacity=".38">0</text>
<text x="780" y="84" class="rt" opacity=".53">1</text><text x="780" y="98" class="rt" opacity=".70">1</text><text x="780" y="112" fill="#cce8ff">0</text>
</g>

<!-- col21 x=820 3.2s -1.3s f=.34s+.10s GLITCH_B 7.0s -1.8s -->
<g style="animation:fall 3.2s -1.3s linear infinite,f0 .34s .10s step-end infinite">
<text x="820" y="0" class="rt" opacity=".03">0</text><text x="820" y="14" class="rt" opacity=".06">0</text><text x="820" y="28" class="rt" opacity=".10">0</text>
<text x="820" y="42" class="rt" opacity=".17">1</text><text x="820" y="56" class="rt" opacity=".26">1</text><text x="820" y="70" class="rt" opacity=".38">0</text>
<text x="820" y="84" class="rt" opacity=".53">1</text><text x="820" y="98" class="rt" opacity=".70">1</text>
<text x="820" y="112" style="fill:#cce8ff;animation:gnb 7.0s -1.8s infinite">0</text>
</g>
<g style="animation:fall 3.2s -1.3s linear infinite,f1 .34s .10s step-end infinite">
<text x="820" y="0" class="rt" opacity=".03">1</text><text x="820" y="14" class="rt" opacity=".06">1</text><text x="820" y="28" class="rt" opacity=".10">1</text>
<text x="820" y="42" class="rt" opacity=".17">0</text><text x="820" y="56" class="rt" opacity=".26">0</text><text x="820" y="70" class="rt" opacity=".38">1</text>
<text x="820" y="84" class="rt" opacity=".53">0</text><text x="820" y="98" class="rt" opacity=".70">0</text>
<text x="820" y="112" style="fill:#cce8ff;animation:gnb 7.0s -1.8s infinite">1</text>
</g>
<text x="820" y="112" class="rg" style="opacity:0;animation:fall 3.2s -1.3s linear infinite,ggb 7.0s -1.8s infinite;font-size:15px">0&#x0336;&#x0347;&#x033C;&#x032A;&#x031E;&#x0320;&#x031F;&#x033B;&#x031F;&#x0324;&#x031D;&#x032A;&#x031C;&#x0316;&#x030B;&#x0311;&#x030C;&#x030C;&#x0342;&#x0342;&#x030A;&#x030A;&#x0348;&#x033E;&#x030B;&#x0344;&#x0305;&#x0315;&#x0358;&#x031C;</text>

<!-- col22 x=860 3.6s -0.5s f=.29s+.13s -->
<g style="animation:fall 3.6s -0.5s linear infinite,f0 .29s .13s step-end infinite">
<text x="860" y="0" class="rt" opacity=".03">1</text><text x="860" y="14" class="rt" opacity=".06">0</text><text x="860" y="28" class="rt" opacity=".10">1</text>
<text x="860" y="42" class="rt" opacity=".17">0</text><text x="860" y="56" class="rt" opacity=".26">0</text><text x="860" y="70" class="rt" opacity=".38">1</text>
<text x="860" y="84" class="rt" opacity=".53">0</text><text x="860" y="98" class="rt" opacity=".70">1</text><text x="860" y="112" fill="#cce8ff">1</text>
</g>
<g style="animation:fall 3.6s -0.5s linear infinite,f1 .29s .13s step-end infinite">
<text x="860" y="0" class="rt" opacity=".03">0</text><text x="860" y="14" class="rt" opacity=".06">1</text><text x="860" y="28" class="rt" opacity=".10">0</text>
<text x="860" y="42" class="rt" opacity=".17">1</text><text x="860" y="56" class="rt" opacity=".26">1</text><text x="860" y="70" class="rt" opacity=".38">0</text>
<text x="860" y="84" class="rt" opacity=".53">1</text><text x="860" y="98" class="rt" opacity=".70">0</text><text x="860" y="112" fill="#cce8ff">0</text>
</g>

</g>

<!-- Perspective ground grid - lines converge at vanishing point (450, 220) -->
<g stroke="#1e4d82" stroke-width="0.8" opacity="0.9">
  <!-- Converging perspective lines fanning out from the center horizon -->
  <!-- Extended far to the left and right to ensure the screen edges are covered -->
  <line x1="450" y1="220" x2="-2750" y2="450"/>
  <line x1="450" y1="220" x2="-2650" y2="450"/>
  <line x1="450" y1="220" x2="-2550" y2="450"/>
  <line x1="450" y1="220" x2="-2450" y2="450"/>
  <line x1="450" y1="220" x2="-2350" y2="450"/>
  <line x1="450" y1="220" x2="-2250" y2="450"/>
  <line x1="450" y1="220" x2="-2150" y2="450"/>
  <line x1="450" y1="220" x2="-2050" y2="450"/>
  <line x1="450" y1="220" x2="-1950" y2="450"/>
  <line x1="450" y1="220" x2="-1850" y2="450"/>
  <line x1="450" y1="220" x2="-1750" y2="450"/>
  <line x1="450" y1="220" x2="-1650" y2="450"/>
  <line x1="450" y1="220" x2="-1550" y2="450"/>
  <line x1="450" y1="220" x2="-1450" y2="450"/>
  <line x1="450" y1="220" x2="-1350" y2="450"/>
  <line x1="450" y1="220" x2="-1250" y2="450"/>
  <line x1="450" y1="220" x2="-1150" y2="450"/>
  <line x1="450" y1="220" x2="-1050" y2="450"/>
  <line x1="450" y1="220" x2="-950"  y2="450"/>
  <line x1="450" y1="220" x2="-850"  y2="450"/>
  <line x1="450" y1="220" x2="-750"  y2="450"/>
  <line x1="450" y1="220" x2="-650"  y2="450"/>
  <line x1="450" y1="220" x2="-550"  y2="450"/>
  <line x1="450" y1="220" x2="-450"  y2="450"/>
  <line x1="450" y1="220" x2="-350"  y2="450"/>
  <line x1="450" y1="220" x2="-250"  y2="450"/>
  <line x1="450" y1="220" x2="-150"  y2="450"/>
  <line x1="450" y1="220" x2="-50"   y2="450"/>
  <line x1="450" y1="220" x2="50"    y2="450"/>
  <line x1="450" y1="220" x2="150"   y2="450"/>
  <line x1="450" y1="220" x2="250"   y2="450"/>
  <line x1="450" y1="220" x2="350"   y2="450"/>
  <line x1="450" y1="220" x2="450"   y2="450"/>
  <line x1="450" y1="220" x2="550"   y2="450"/>
  <line x1="450" y1="220" x2="650"   y2="450"/>
  <line x1="450" y1="220" x2="750"   y2="450"/>
  <line x1="450" y1="220" x2="850"   y2="450"/>
  <line x1="450" y1="220" x2="950"   y2="450"/>
  <line x1="450" y1="220" x2="1050"  y2="450"/>
  <line x1="450" y1="220" x2="1150"  y2="450"/>
  <line x1="450" y1="220" x2="1250"  y2="450"/>
  <line x1="450" y1="220" x2="1350"  y2="450"/>
  <line x1="450" y1="220" x2="1450"  y2="450"/>
  <line x1="450" y1="220" x2="1550"  y2="450"/>
  <line x1="450" y1="220" x2="1650"  y2="450"/>
  <line x1="450" y1="220" x2="1750"  y2="450"/>
  <line x1="450" y1="220" x2="1850"  y2="450"/>
  <line x1="450" y1="220" x2="1950"  y2="450"/>
  <line x1="450" y1="220" x2="2050"  y2="450"/>
  <line x1="450" y1="220" x2="2150"  y2="450"/>
  <line x1="450" y1="220" x2="2250"  y2="450"/>
  <line x1="450" y1="220" x2="2350"  y2="450"/>
  <line x1="450" y1="220" x2="2450"  y2="450"/>
  <line x1="450" y1="220" x2="2550"  y2="450"/>
  <line x1="450" y1="220" x2="2650"  y2="450"/>
  <line x1="450" y1="220" x2="2750"  y2="450"/>
  <line x1="450" y1="220" x2="2850"  y2="450"/>
  <line x1="450" y1="220" x2="2950"  y2="450"/>
  <line x1="450" y1="220" x2="3050"  y2="450"/>
  <line x1="450" y1="220" x2="3150"  y2="450"/>
  <line x1="450" y1="220" x2="3250"  y2="450"/>
  <line x1="450" y1="220" x2="3350"  y2="450"/>
  <line x1="450" y1="220" x2="3450"  y2="450"/>
  <line x1="450" y1="220" x2="3550"  y2="450"/>
  <line x1="450" y1="220" x2="3650"  y2="450"/>

  <!-- Horizontal lines, exponentially closer together towards the horizon (y=220) -->
  <line x1="0" y1="450" x2="900" y2="450"/>
  <line x1="0" y1="397" x2="900" y2="397"/>
  <line x1="0" y1="364" x2="900" y2="364"/>
  <line x1="0" y1="335" x2="900" y2="335"/>
  <line x1="0" y1="312" x2="900" y2="312"/>
  <line x1="0" y1="297" x2="900" y2="297"/>
  <line x1="0" y1="286" x2="900" y2="286"/>
  <line x1="0" y1="278" x2="900" y2="278"/>
  <line x1="0" y1="271" x2="900" y2="271"/>
  <line x1="0" y1="266" x2="900" y2="266"/>
  <line x1="0" y1="258" x2="900" y2="258"/>
  <line x1="0" y1="253" x2="900" y2="253"/>
  <line x1="0" y1="249" x2="900" y2="249"/>
  <line x1="0" y1="246" x2="900" y2="246"/>
  <line x1="0" y1="243" x2="900" y2="243"/>
  <line x1="0" y1="239" x2="900" y2="239"/>
  <line x1="0" y1="236" x2="900" y2="236"/>
  <line x1="0" y1="234" x2="900" y2="234"/>
  <line x1="0" y1="232" x2="900" y2="232"/>
  <line x1="0" y1="229" x2="900" y2="229"/>
  <line x1="0" y1="227" x2="900" y2="227"/>
  <line x1="0" y1="225" x2="900" y2="225"/>
  <line x1="0" y1="223" x2="900" y2="223"/>
</g>

<line x1="0" y1="220" x2="900" y2="220" stroke="#1a3d6e" stroke-width="3" opacity=".5"/>
<line x1="0" y1="220" x2="900" y2="220" stroke="#4488ff" stroke-width="1" opacity=".45"/>
</svg>
